{
    "asset" : {
        "generator" : "Khronos glTF Blender I/O v1.6.16",
        "version" : "2.0"
    },
    "scene" : 0,
    "scenes" : [
        {
            "name" : "Scene",
            "nodes" : [
                0,
                1,
                2
            ]
        }
    ],
    "nodes" : [
        {
            "name" : "Light",
            "rotation" : [
                0.16907575726509094,
                0.7558803558349609,
                -0.27217137813568115,
                0.570947527885437
            ],
            "translation" : [
                4.076245307922363,
                5.903861999511719,
                -1.0054539442062378
            ]
        },
        {
            "name" : "Camera",
            "rotation" : [
                0.483536034822464,
                0.33687159419059753,
                -0.20870360732078552,
                0.7804827094078064
            ],
            "translation" : [
                7.358891487121582,
                4.958309173583984,
                6.925790786743164
            ]
        },
        {
            "mesh" : 0,
            "name" : "Cam Lock Lock - Body-1",
            "scale" : [
                0.0020000000949949026,
                0.0020000000949949026,
                0.0020000000949949026
            ],
            "translation" : [
                0,
                0.09143999963998795,
                0
            ]
        }
    ],
    "meshes" : [
        {
            "name" : "Cam Lock Lock - Body-1",
            "primitives" : [
                {
                    "attributes" : {
                        "POSITION" : 0,
                        "NORMAL" : 1
                    },
                    "indices" : 2
                }
            ]
        }
    ],
    "accessors" : [
        {
            "bufferView" : 0,
            "componentType" : 5126,
            "count" : 47929,
            "max" : [
                47.60258483886719,
                50.07215118408203,
                41.2597770690918
            ],
            "min" : [
                -56.944358825683594,
                -58.62714767456055,
                -41.29022979736328
            ],
            "type" : "VEC3"
        },
        {
            "bufferView" : 1,
            "componentType" : 5126,
            "count" : 47929,
            "type" : "VEC3"
        },
        {
            "bufferView" : 2,
            "componentType" : 5123,
            "count" : 48444,
            "type" : "SCALAR"
        }
    ],
    "bufferViews" : [
        {
            "buffer" : 0,
            "byteLength" : 575148,
            "byteOffset" : 0
        },
        {
            "buffer" : 0,
            "byteLength" : 575148,
            "byteOffset" : 575148
        },
        {
            "buffer" : 0,
            "byteLength" : 96888,
            "byteOffset" : 1150296
        }
    ],
    "buffers" : [
        {
            "byteLength" : 1247184,
            "uri" : "data:application/octet-stream;base64,"
        }
    ]
}
