{
    "asset" : {
        "generator" : "Khronos glTF Blender I/O v1.6.16",
        "version" : "2.0"
    },
    "scene" : 0,
    "scenes" : [
        {
            "name" : "Scene",
            "nodes" : [
                0,
                1,
                2
            ]
        }
    ],
    "nodes" : [
        {
            "name" : "Light",
            "rotation" : [
                0.16907575726509094,
                0.7558803558349609,
                -0.27217137813568115,
                0.570947527885437
            ],
            "translation" : [
                4.076245307922363,
                5.903861999511719,
                -1.0054539442062378
            ]
        },
        {
            "name" : "Camera",
            "rotation" : [
                0.483536034822464,
                0.33687159419059753,
                -0.20870360732078552,
                0.7804827094078064
            ],
            "translation" : [
                7.358891487121582,
                4.958309173583984,
                6.925790786743164
            ]
        },
        {
            "mesh" : 0,
            "name" : "Cam Lock Lock - Body-1"
        }
    ],
    "meshes" : [
        {
            "name" : "Cam Lock Lock - Body-1",
            "primitives" : [
                {
                    "attributes" : {
                        "POSITION" : 0,
                        "NORMAL" : 1
                    },
                    "indices" : 2
                }
            ]
        }
    ],
    "accessors" : [
        {
            "bufferView" : 0,
            "componentType" : 5126,
            "count" : 47962,
            "max" : [
                105.42726135253906,
                109.04918670654297,
                -0.4571796953678131
            ],
            "min" : [
                0.8803162574768066,
                0.34988901019096375,
                -83.00718688964844
            ],
            "type" : "VEC3"
        },
        {
            "bufferView" : 1,
            "componentType" : 5126,
            "count" : 47962,
            "type" : "VEC3"
        },
        {
            "bufferView" : 2,
            "componentType" : 5123,
            "count" : 48444,
            "type" : "SCALAR"
        }
    ],
    "bufferViews" : [
        {
            "buffer" : 0,
            "byteLength" : 575544,
            "byteOffset" : 0
        },
        {
            "buffer" : 0,
            "byteLength" : 575544,
            "byteOffset" : 575544
        },
        {
            "buffer" : 0,
            "byteLength" : 96888,
            "byteOffset" : 1151088
        }
    ],
    "buffers" : [
        {
            "byteLength" : 1247976,
            "uri" : "data:application/octet-stream;base64,"
        }
    ]
}
